<svg width="20" height="20" viewBox="0 0 20 20" fill="none" xmlns="http://www.w3.org/2000/svg">
<path d="M12.9172 16.0007C12.9172 16.3837 12.8417 16.7629 12.6951 17.1168C12.5486 17.4707 12.3337 17.7922 12.0629 18.063C11.7921 18.3339 11.4705 18.5487 11.1167 18.6953C10.7628 18.8419 10.3835 18.9173 10.0005 18.9173C9.61748 18.9173 9.23821 18.8419 8.88434 18.6953C8.53047 18.5487 8.20894 18.3339 7.93811 18.063C7.66727 17.7922 7.45243 17.4707 7.30585 17.1168C7.15928 16.7629 7.08383 16.3837 7.08383 16.0007M16.0263 16.0007H3.9755C3.68398 16.0005 3.39904 15.914 3.1567 15.7519C2.91436 15.5899 2.72551 15.3596 2.61402 15.0903C2.50253 14.8209 2.47341 14.5245 2.53033 14.2386C2.58726 13.9527 2.72768 13.6901 2.93383 13.484L3.4355 12.9815C3.90407 12.5126 4.16725 11.8769 4.16717 11.214V8.91732C4.16717 7.37022 4.78175 5.88649 5.87571 4.79253C6.96967 3.69857 8.4534 3.08398 10.0005 3.08398C11.5476 3.08398 13.0313 3.69857 14.1253 4.79253C15.2193 5.88649 15.8338 7.37022 15.8338 8.91732V11.214C15.834 11.877 16.0975 12.5128 16.5663 12.9815L17.0688 13.484C17.2746 13.6903 17.4146 13.9528 17.4713 14.2386C17.528 14.5244 17.4988 14.8206 17.3874 15.0898C17.276 15.359 17.0873 15.5891 16.8453 15.7512C16.6032 15.9133 16.3177 16.0001 16.0263 16.0007Z" stroke="black" stroke-linecap="round" stroke-linejoin="round"/>
<rect x="1" y="1" width="7" height="7" rx="3.5" fill="#FF0000"/>
<path d="M5.57031 3.17188V6H5.17578L3.74219 3.93359H3.71875V6H3.28906V3.17188H3.6875L5.12109 5.24219H5.14844V3.17188H5.57031Z" fill="white"/>
</svg>
