<svg width="28" height="28" viewBox="0 0 28 28" fill="none" xmlns="http://www.w3.org/2000/svg">
<path d="M17.5403 19.6311C17.5403 20.0713 17.4487 20.5073 17.2709 20.9141C17.093 21.3208 16.8323 21.6904 16.5036 22.0017C16.1749 22.3131 15.7847 22.56 15.3553 22.7285C14.9259 22.897 14.4656 22.9837 14.0008 22.9837C13.536 22.9837 13.0758 22.897 12.6463 22.7285C12.2169 22.56 11.8267 22.3131 11.4981 22.0017C11.1694 21.6904 10.9087 21.3208 10.7308 20.9141C10.5529 20.5073 10.4614 20.0713 10.4614 19.6311M21.3133 19.6311H6.68932C6.33554 19.6309 5.98976 19.5314 5.69568 19.3452C5.40159 19.1589 5.17242 18.8942 5.03712 18.5846C4.90182 18.275 4.86648 17.9343 4.93556 17.6057C5.00464 17.277 5.17504 16.9751 5.42522 16.7382L6.03401 16.1606C6.60263 15.6217 6.922 14.8909 6.92191 14.1289V11.489C6.92191 9.71061 7.66772 8.0051 8.99527 6.74762C10.3228 5.49014 12.1234 4.78369 14.0008 4.78369C15.8783 4.78369 17.6788 5.49014 19.0064 6.74762C20.3339 8.0051 21.0797 9.71061 21.0797 11.489V14.1289C21.0799 14.891 21.3997 15.6218 21.9687 16.1606L22.5785 16.7382C22.8281 16.9753 22.9981 17.2772 23.0669 17.6056C23.1357 17.9341 23.1003 18.2746 22.965 18.584C22.8298 18.8934 22.6009 19.158 22.3071 19.3444C22.0134 19.5307 21.6669 19.6305 21.3133 19.6311Z" stroke="#585858" stroke-linecap="round" stroke-linejoin="round"/>
</svg>
