<svg width="16" height="16" viewBox="0 0 16 16" fill="none" xmlns="http://www.w3.org/2000/svg">
<path d="M7.9999 13.6004C9.10748 13.6004 10.1902 13.272 11.1111 12.6566C12.032 12.0413 12.7498 11.1667 13.1736 10.1434C13.5975 9.12015 13.7084 7.99418 13.4923 6.90789C13.2762 5.82159 12.7429 4.82377 11.9597 4.04059C11.1765 3.25742 10.1787 2.72407 9.09241 2.508C8.00611 2.29192 6.88014 2.40282 5.85687 2.82667C4.83361 3.25052 3.95901 3.96828 3.34367 4.8892C2.72834 5.81011 2.3999 6.89282 2.3999 8.00039C2.3999 8.92626 2.6239 9.79924 3.02212 10.5683L2.3999 13.6004L5.43199 12.9782C6.20106 13.3764 7.07466 13.6004 7.9999 13.6004Z" stroke="#9D9D9D" stroke-linecap="round" stroke-linejoin="round"/>
</svg>
