<svg width="20" height="20" viewBox="0 0 20 20" fill="none" xmlns="http://www.w3.org/2000/svg">
<path d="M6 9.33301C6 7.44767 6 6.50434 6.586 5.91901C7.17133 5.33301 8.11467 5.33301 10 5.33301H12C13.8853 5.33301 14.8287 5.33301 15.414 5.91901C16 6.50434 16 7.44767 16 9.33301V12.6663C16 14.5517 16 15.495 15.414 16.0803C14.8287 16.6663 13.8853 16.6663 12 16.6663H10C8.11467 16.6663 7.17133 16.6663 6.586 16.0803C6 15.495 6 14.5517 6 12.6663V9.33301Z" stroke="#585858"/>
<path d="M6 14.6663C5.46957 14.6663 4.96086 14.4556 4.58579 14.0806C4.21071 13.7055 4 13.1968 4 12.6663V8.66634C4 6.15234 4 4.89501 4.78133 4.11434C5.56267 3.33367 6.81933 3.33301 9.33333 3.33301H12C12.5304 3.33301 13.0391 3.54372 13.4142 3.91879C13.7893 4.29387 14 4.80257 14 5.33301" stroke="#585858"/>
</svg>
