<svg width="30" height="30" viewBox="0 0 30 30" fill="none" xmlns="http://www.w3.org/2000/svg">
<path d="M6.66346 23.6315C5.51734 22.5245 4.60315 21.2004 3.97424 19.7363C3.34533 18.2723 3.0143 16.6976 3.00045 15.1043C2.98661 13.5109 3.29023 11.9308 3.8936 10.456C4.49697 8.98125 5.38801 7.64143 6.51472 6.51472C7.64143 5.38801 8.98125 4.49697 10.456 3.8936C11.9308 3.29023 13.5109 2.98661 15.1043 3.00045C16.6976 3.0143 18.2723 3.34533 19.7363 3.97424C21.2004 4.60315 22.5245 5.51734 23.6315 6.66346C25.8174 8.92668 27.0269 11.9579 26.9995 15.1043C26.9722 18.2506 25.7102 21.2604 23.4853 23.4853C21.2604 25.7102 18.2506 26.9722 15.1043 26.9995C11.9579 27.0269 8.92668 25.8174 6.66346 23.6315ZM13.9475 9.14746V16.3475H16.3475V9.14746H13.9475ZM13.9475 18.7475V21.1475H16.3475V18.7475H13.9475Z" fill="#FF7B84"/>
</svg>
