<svg width="16" height="16" viewBox="0 0 16 16" fill="none" xmlns="http://www.w3.org/2000/svg">
<path d="M13.5999 6.24272C13.6018 7.10443 13.2698 7.93338 12.6736 8.55555C11.3067 9.97292 9.98057 11.4508 8.56319 12.8161C8.23783 13.1241 7.72206 13.1129 7.41126 12.7909L3.32601 8.55611C2.0912 7.27593 2.0912 5.20951 3.32601 3.92989C3.61786 3.62357 3.96887 3.3797 4.35776 3.21307C4.74666 3.04644 5.16535 2.96052 5.58844 2.96052C6.01153 2.96052 6.43022 3.04644 6.81912 3.21307C7.20801 3.3797 7.55902 3.62357 7.85087 3.92989L7.99983 4.08333L8.14823 3.92989C8.44042 3.62398 8.79149 3.38036 9.1803 3.21367C9.56911 3.04698 9.98762 2.96068 10.4107 2.95996C11.2619 2.95996 12.0756 3.3094 12.6731 3.92989C13.2695 4.55197 13.6017 5.38093 13.5999 6.24272Z" stroke="#9D9D9D" stroke-linejoin="round"/>
</svg>
