<svg width="30" height="30" viewBox="0 0 30 30" fill="none" xmlns="http://www.w3.org/2000/svg">
<path opacity="0.987" fill-rule="evenodd" clip-rule="evenodd" d="M13.517 1.98891C14.8763 1.83703 15.6807 1.83703 17.1413 1.98891C19.7268 2.37158 22.1236 3.56669 23.9851 5.40141C22.7272 6.59041 21.4858 7.79678 20.2613 9.02016C17.9163 7.03266 15.2988 6.57391 12.4088 7.64391C10.2888 8.61891 8.81259 10.1989 7.98009 12.3839C6.61966 11.3711 5.27696 10.3347 3.95259 9.27516C3.86055 9.22671 3.75543 9.20897 3.65259 9.22453C5.75634 5.16828 9.04384 2.75578 13.5151 1.98703" fill="#F24538"/>
<path opacity="0.997" fill-rule="evenodd" clip-rule="evenodd" d="M3.64873 9.22473C3.75498 9.20848 3.85561 9.22535 3.95061 9.27535C5.27498 10.3349 6.61769 11.3713 7.97811 12.3841C7.76403 13.2355 7.62908 14.1048 7.57498 14.981C7.62123 15.8285 7.75561 16.6604 7.97811 17.4766L3.74998 20.8422C1.90873 16.9947 1.87498 13.1222 3.64873 9.22473Z" fill="#FFC107"/>
<path opacity="0.999" fill-rule="evenodd" clip-rule="evenodd" d="M23.7844 24.9186C22.4679 23.7576 21.0896 22.6685 19.6556 21.6561C21.0931 20.6411 21.9656 19.2486 22.2731 17.4786H15.2288V12.5868C19.2913 12.553 23.3519 12.5874 27.4106 12.6899C28.1806 16.8711 27.2913 20.6411 24.7425 23.9999C24.4394 24.3221 24.1184 24.6287 23.7844 24.9186Z" fill="#448AFF"/>
<path opacity="0.993" fill-rule="evenodd" clip-rule="evenodd" d="M7.97813 17.4785C9.51562 21.2998 12.3344 23.0835 16.4344 22.8298C17.5853 22.6965 18.6888 22.2945 19.6556 21.656C21.0906 22.671 22.4669 23.7585 23.7844 24.9185C21.6968 26.7944 19.0352 27.9074 16.2338 28.076C15.5973 28.1269 14.9577 28.1269 14.3212 28.076C9.54875 27.5135 6.025 25.1023 3.75 20.8423L7.97813 17.4785Z" fill="#43A047"/>
</svg>
