<svg width="40" height="38" viewBox="0 0 40 38" fill="none" xmlns="http://www.w3.org/2000/svg">
<g clip-path="url(#clip0_1455_4417)">
<path d="M10.0544 8.88976C7.26877 9.42434 6.90894 8.21801 6.90894 7.3907V2.79166C6.90894 1.43119 8.00962 0 9.36572 0L13.6866 0.328098C16.7798 0.328098 19.2874 2.84116 19.2874 5.94112V12.7166C19.3184 12.7477 15.1584 7.9083 10.0529 8.88835L10.0544 8.88976Z" fill="#FF7B84"/>
<path d="M29.9754 8.88976C32.761 9.42434 33.1208 8.21801 33.1208 7.3907V2.79166C33.1208 1.43119 32.0201 0 30.664 0L26.3431 0.328098C23.2499 0.328098 20.7424 2.84116 20.7424 5.94112V12.7166C20.7113 12.7477 24.8713 7.9083 29.9768 8.88835L29.9754 8.88976Z" fill="#C78B3C"/>
<path d="M39.9859 35.0214V20.7208C39.9859 15.1219 35.363 10.5611 29.782 10.8043C27.0458 10.9231 24.6737 12.3133 22.9041 14.0881L20.0028 17L17.0973 14.0881C15.3489 12.3359 12.9556 10.9231 10.2194 10.8043C4.63699 10.5597 0.0141113 15.1191 0.0141113 20.7194V35.02C0.0042334 35.1119 0 35.2052 0 35.3C0 36.792 1.20652 37.9983 2.69244 37.9983C4.17837 37.9983 5.38489 36.792 5.38489 35.3C5.38489 34.5589 5.399 29.3419 5.399 29.3419V21.36C5.399 20.322 5.66852 19.3943 6.14408 18.615C7.63 16.1713 11.0393 15.8008 13.1405 17.7382C13.1405 17.7382 16.2591 20.7548 16.2534 20.7576C15.4787 21.2865 14.5149 22.2666 14.5587 22.2227C12.8202 23.965 11.33 26.2603 11.33 28.9982C11.33 33.9239 15.4068 37.8979 20.3669 37.714C25.0265 37.5415 28.7462 33.6567 28.7392 28.9841C28.7349 26.1641 27.0641 23.8208 25.32 22.0714C25.32 22.0714 23.8002 20.7533 23.803 20.7491L26.8581 17.7396C28.9593 15.8036 32.3672 16.1727 33.8545 18.6165C34.3287 19.3971 34.5996 20.3234 34.5996 21.3615V29.3433C34.5996 29.3433 34.6137 34.5603 34.6137 35.3014C34.6137 36.7934 35.8174 37.9997 37.3061 37.9997C38.7949 37.9997 39.9986 36.7934 39.9986 35.3014C39.9986 35.2066 39.9929 35.1133 39.9845 35.0214H39.9859ZM20 32.777C17.9736 32.777 16.3296 31.1309 16.3296 29.0986C16.3296 27.0664 17.9722 25.4203 20 25.4203C22.0278 25.4203 23.6704 27.0664 23.6704 29.0986C23.6704 31.1309 22.0278 32.777 20 32.777Z" fill="#5A9F73"/>
</g>
<defs>
<clipPath id="clip0_1455_4417">
<rect width="40" height="38" fill="white"/>
</clipPath>
</defs>
</svg>
