<svg width="94" height="12" viewBox="0 0 94 12" fill="none" xmlns="http://www.w3.org/2000/svg">
<path d="M13.1097 4.32435C13.1097 3.28734 12.7185 2.81788 11.9746 2.81788C11.0357 2.81788 10.488 3.62015 10.488 5.00981V11.525H6.55485V4.32435C6.55485 3.28734 6.16363 2.81788 5.40103 2.81788C4.4621 2.81788 3.93313 3.62015 3.93313 5.00981V11.525H0V0.274405H3.93313V1.99577C4.32435 0.802275 5.41976 0 6.94607 0C8.47237 0 9.58762 0.645787 10.0968 2.0156C10.6643 0.802275 11.7994 0 13.4623 0C15.7711 0 17.0428 1.38965 17.0428 4.30451V11.5239H13.1097V4.32325V4.32435Z" fill="black"/>
<path d="M23.8903 0C27.6075 0 29.3883 2.2305 29.3883 5.88922C29.3883 9.54795 27.6075 11.7983 23.8903 11.7983C20.1732 11.7983 18.3923 9.58762 18.3923 5.88922C18.3923 2.19083 20.1919 0 23.8903 0ZM23.8903 8.9231C24.9273 8.9231 25.4949 8.33572 25.4949 5.89033C25.4949 3.44493 24.967 2.87739 23.8903 2.87739C22.8137 2.87739 22.2858 3.60142 22.2858 5.89033C22.2858 8.29715 22.8533 8.9231 23.8903 8.9231Z" fill="black"/>
<path d="M41.1076 9.78341C41.1076 10.4094 41.2057 11.1136 41.4404 11.5246H37.429C37.2924 11.2116 37.1745 10.7223 37.1546 10.1746C36.7237 11.1532 35.668 11.799 34.2001 11.799C32.0082 11.799 30.5017 10.4689 30.5017 8.23837C30.5017 6.00787 32.0082 4.67772 34.2001 4.67772C35.6283 4.67772 36.7237 5.28384 37.1546 6.30211V3.89528C37.1546 3.17125 36.8218 2.72163 36.078 2.72163C35.3341 2.72163 34.9825 3.15252 34.9825 3.85671L31.0494 3.87655C31.0494 1.64605 32.752 0.00292969 36.078 0.00292969C39.4039 0.00292969 41.1065 1.70556 41.1065 3.97463V9.78561L41.1076 9.78341ZM35.8058 9.37235C36.6863 9.37235 37.1557 8.98113 37.1557 8.23726C37.1557 7.4934 36.6863 7.10218 35.8058 7.10218C34.9252 7.10218 34.4359 7.4934 34.4359 8.23726C34.4359 8.98113 34.9252 9.37235 35.8058 9.37235Z" fill="black"/>
<path d="M46.6059 8.11972V8.35445C46.6059 8.88233 46.9188 9.27465 47.5844 9.27465C48.2501 9.27465 48.563 8.88343 48.563 8.35445C48.563 7.74834 48.1917 7.39569 47.4676 7.25904C44.2585 6.67166 42.6353 5.85065 42.6353 3.56064C42.6353 1.5252 44.2596 0 47.3111 0C50.3627 0 51.9683 1.54614 51.9683 3.36559V3.50224H48.1333V3.34575C48.1333 2.87629 47.8589 2.54347 47.2924 2.54347C46.726 2.54347 46.4703 2.87629 46.4703 3.34575C46.4703 3.85489 46.8814 4.16786 47.6638 4.32435C50.8145 4.93046 52.4774 5.63576 52.4774 8.08115C52.4774 10.3117 50.6966 11.7983 47.5856 11.7983C44.2982 11.7983 42.6937 10.2136 42.6937 8.11972H46.607H46.6059Z" fill="black"/>
<path d="M57.5221 8.11972V8.35445C57.5221 8.88233 57.8351 9.27465 58.5007 9.27465C59.1663 9.27465 59.4793 8.88343 59.4793 8.35445C59.4793 7.74834 59.1079 7.39569 58.3839 7.25904C55.1748 6.67166 53.5515 5.85065 53.5515 3.56064C53.5515 1.5252 55.1759 0 58.2274 0C61.2789 0 62.8846 1.54614 62.8846 3.36559V3.50224H59.0495V3.34575C59.0495 2.87629 58.7751 2.54347 58.2087 2.54347C57.6422 2.54347 57.3866 2.87629 57.3866 3.34575C57.3866 3.85489 57.7976 4.16786 58.5801 4.32435C61.7307 4.93046 63.3937 5.63576 63.3937 8.08115C63.3937 10.3117 61.6128 11.7983 58.5018 11.7983C55.2145 11.7983 53.6099 10.2136 53.6099 8.11972H57.5232H57.5221Z" fill="black"/>
<path d="M68.3429 6.78848V7.02321C68.3429 8.52968 68.9303 9.21514 69.9475 9.21514C70.828 9.21514 71.2974 8.74568 71.3955 8.06132H75.2107C74.7798 10.6048 72.7653 11.7983 69.9475 11.7983C66.2303 11.7983 64.4495 9.56779 64.4495 5.88922C64.4495 2.21066 66.2105 0 69.9475 0C73.6844 0 75.4256 2.25034 75.4256 5.88922C75.4256 6.24187 75.4256 6.55485 75.3871 6.78958H68.3429V6.78848ZM71.5322 4.71447V4.69463C71.5322 3.30497 70.8864 2.58094 69.9475 2.58094C68.9105 2.58094 68.441 3.30497 68.3429 4.71336H71.5322V4.71447Z" fill="black"/>
<path d="M89.9237 4.32435C89.9237 3.28734 89.5324 2.81788 88.7886 2.81788C87.8496 2.81788 87.3019 3.62015 87.3019 5.00981V11.525H83.3688V4.32435C83.3688 3.28734 82.9776 2.81788 82.215 2.81788C81.2761 2.81788 80.7471 3.62015 80.7471 5.00981V11.525H76.814V0.274405H80.7471V1.99577C81.1383 0.802275 82.2337 0 83.76 0C85.2863 0 86.4016 0.645787 86.9107 2.0156C87.4783 0.802275 88.6133 0 90.2763 0C92.585 0 93.8568 1.38965 93.8568 4.30451V11.5239H89.9237V4.32325V4.32435Z" fill="black"/>
</svg>
