<svg viewBox="0 0 16 16" fill="none" xmlns="http://www.w3.org/2000/svg">
<path d="M12.8002 12.8002L9.6002 9.6002M3.2002 6.93353C3.2002 7.4238 3.29676 7.90927 3.48438 8.36221C3.672 8.81516 3.94699 9.22672 4.29366 9.57339C4.64034 9.92007 5.0519 10.1951 5.50484 10.3827C5.95779 10.5703 6.44326 10.6669 6.93353 10.6669C7.4238 10.6669 7.90927 10.5703 8.36221 10.3827C8.81516 10.1951 9.22672 9.92007 9.57339 9.57339C9.92007 9.22672 10.1951 8.81516 10.3827 8.36221C10.5703 7.90927 10.6669 7.4238 10.6669 6.93353C10.6669 6.44326 10.5703 5.95779 10.3827 5.50484C10.1951 5.0519 9.92007 4.64034 9.57339 4.29366C9.22672 3.94699 8.81516 3.672 8.36221 3.48438C7.90927 3.29676 7.4238 3.2002 6.93353 3.2002C6.44326 3.2002 5.95779 3.29676 5.50484 3.48438C5.0519 3.672 4.64034 3.94699 4.29366 4.29366C3.94699 4.64034 3.672 5.0519 3.48438 5.50484C3.29676 5.95779 3.2002 6.44326 3.2002 6.93353Z" stroke="currentColor" stroke-linecap="round" stroke-linejoin="round"/>
</svg>
