<svg width="30" height="30" viewBox="0 0 30 30" fill="none" xmlns="http://www.w3.org/2000/svg">
<path fill-rule="evenodd" clip-rule="evenodd" d="M15 27.5C16.6415 27.5 18.267 27.1767 19.7835 26.5485C21.3001 25.9203 22.6781 24.9996 23.8388 23.8388C24.9996 22.6781 25.9203 21.3001 26.5485 19.7835C27.1767 18.267 27.5 16.6415 27.5 15C27.5 13.3585 27.1767 11.733 26.5485 10.2165C25.9203 8.69989 24.9996 7.3219 23.8388 6.16116C22.6781 5.00043 21.3001 4.07969 19.7835 3.45151C18.267 2.82332 16.6415 2.5 15 2.5C11.6848 2.5 8.50537 3.81696 6.16117 6.16116C3.81696 8.50537 2.5 11.6848 2.5 15C2.5 18.3152 3.81696 21.4946 6.16117 23.8388C8.50537 26.183 11.6848 27.5 15 27.5ZM14.6778 20.0556L21.6222 11.7222L19.4889 9.94444L13.5167 17.1097L10.4264 14.0181L8.4625 15.9819L12.6292 20.1486L13.7042 21.2236L14.6778 20.0556Z" fill="#FF7B84"/>
</svg>
