<svg width="28" height="28" viewBox="0 0 28 28" fill="none" xmlns="http://www.w3.org/2000/svg">
<circle cx="14" cy="14" r="14" fill="#585858" fill-opacity="0.5"/>
<circle cx="14" cy="14" r="14" fill="url(#paint0_radial_1509_5491)" fill-opacity="0.12"/>
<path d="M12.8865 3.42857C13.3814 2.57143 14.6186 2.57143 15.1135 3.42857L23.7119 18.3214C24.2067 19.1786 23.5881 20.25 22.5984 20.25H5.40161C4.41186 20.25 3.79327 19.1786 4.28814 18.3214L12.8865 3.42857Z" fill="#E2A658"/>
<path d="M14.6466 9.86697L13.9998 13.7488L13.353 9.86697C13.3375 9.77311 13.3426 9.67699 13.368 9.5853C13.3933 9.49361 13.4383 9.40853 13.4999 9.33598C13.5614 9.26343 13.638 9.20515 13.7243 9.16517C13.8107 9.1252 13.9047 9.10449 13.9998 9.10449C14.0949 9.10449 14.1889 9.1252 14.2753 9.16517C14.3616 9.20515 14.4382 9.26343 14.4997 9.33598C14.5613 9.40853 14.6063 9.49361 14.6317 9.5853C14.657 9.67699 14.6621 9.77311 14.6466 9.86697Z" stroke="#484848" stroke-width="1.5486" stroke-linecap="round" stroke-linejoin="round"/>
<path d="M13.9996 17.1047C14.2847 17.1047 14.5158 16.8736 14.5158 16.5885C14.5158 16.3034 14.2847 16.0723 13.9996 16.0723C13.7145 16.0723 13.4834 16.3034 13.4834 16.5885C13.4834 16.8736 13.7145 17.1047 13.9996 17.1047Z" stroke="#484848" stroke-width="1.0324"/>
<defs>
<radialGradient id="paint0_radial_1509_5491" cx="0" cy="0" r="1" gradientUnits="userSpaceOnUse" gradientTransform="translate(52.2667 -38.2667) rotate(130.668) scale(174.73)">
<stop stop-color="#ED7600"/>
<stop offset="1" stop-color="#ED8600" stop-opacity="0"/>
</radialGradient>
</defs>
</svg>
