<svg width="16" height="16" viewBox="0 0 16 16" fill="none" xmlns="http://www.w3.org/2000/svg">
<path d="M9.71373 8.00042C9.71373 8.45508 9.53312 8.89111 9.21162 9.2126C8.89013 9.53409 8.4541 9.7147 7.99944 9.7147C7.54478 9.7147 7.10875 9.53409 6.78726 9.2126C6.46577 8.89111 6.28516 8.45508 6.28516 8.00042C6.28516 7.54576 6.46577 7.10973 6.78726 6.78824C7.10875 6.46674 7.54478 6.28613 7.99944 6.28613C8.4541 6.28613 8.89013 6.46674 9.21162 6.78824C9.53312 7.10973 9.71373 7.54576 9.71373 8.00042Z" stroke="#9D9D9D" stroke-linecap="round" stroke-linejoin="round"/>
<path d="M2.28516 8C3.19944 5.65886 5.3343 4 7.99944 4C10.6646 4 12.7994 5.65886 13.7137 8C12.7994 10.3411 10.6646 12 7.99944 12C5.3343 12 3.19944 10.3411 2.28516 8Z" stroke="#9D9D9D" stroke-linecap="round" stroke-linejoin="round"/>
</svg>
